HIERARCHY
ROOT Hips
{
  OFFSET -32.5998 29.0326 120.673
  CHANNELS 6 Xposition Yposition Zposition Zrotation Xrotation Yrotation
  JOINT LeftUpLeg
  {
    OFFSET 8.64259 1.95398 -2.38835
    CHANNELS 3 Zrotation Xrotation Yrotation
    JOINT LeftLeg
    {
      OFFSET 43.7702 0 0
      CHANNELS 3 Zrotation Xrotation Yrotation
      JOINT LeftFoot
      {
        OFFSET 40.6238 0 0
        CHANNELS 3 Zrotation Xrotation Yrotation
        JOINT LeftToeBase
        {
          OFFSET 12.7242 0 0
          CHANNELS 3 Zrotation Xrotation Yrotation
          End Site
          {
            OFFSET 0 0 0
          }
        }
      }
    }
  }
  JOINT RightUpLeg
  {
    OFFSET -8.2249 1.95398 -2.59336
    CHANNELS 3 Zrotation Xrotation Yrotation
    JOINT RightLeg
    {
      OFFSET 43.5653 0 0
      CHANNELS 3 Zrotation Xrotation Yrotation
      JOINT RightFoot
      {
        OFFSET 40.6238 0 0
        CHANNELS 3 Zrotation Xrotation Yrotation
        JOINT RightToeBase
        {
          OFFSET 12.7242 0 0
          CHANNELS 3 Zrotation Xrotation Yrotation
          End Site
          {
            OFFSET 0 0 0
          }
        }
      }
    }
  }
  JOINT Spine
  {
    OFFSET 0.165834 0.87714 6.61349
    CHANNELS 3 Zrotation Xrotation Yrotation
    JOINT Spine1
    {
      OFFSET 7.38963 1.71661e-005 0
      CHANNELS 3 Zrotation Xrotation Yrotation
      JOINT Spine2
      {
        OFFSET 11.9445 1.14441e-005 0
        CHANNELS 3 Zrotation Xrotation Yrotation
        JOINT Spine3
        {
          OFFSET 14.7254 4.19617e-005 0
          CHANNELS 3 Zrotation Xrotation Yrotation
          JOINT Spine4
          {
            OFFSET 10.9679 0 0
            CHANNELS 3 Zrotation Xrotation Yrotation
            JOINT RightShoulder
            {
              OFFSET 2.46616 -1.6653 3.69651
              CHANNELS 3 Zrotation Xrotation Yrotation
              JOINT RightArm
              {
                OFFSET 13.0012 0 0
                CHANNELS 3 Zrotation Xrotation Yrotation
                JOINT RightForeArm
                {
                  OFFSET 28.7848 1.62311e-005 0
                  CHANNELS 3 Zrotation Xrotation Yrotation
                  JOINT RightHand
                  {
                    OFFSET 26.5688 1.62095e-005 0
                    CHANNELS 3 Zrotation Xrotation Yrotation
                    End Site
                    {
                      OFFSET 0 0 0
                    }
                  }
                }
              }
            }
            JOINT LeftShoulder
            {
              OFFSET 2.38034 -1.29275 -3.7523
              CHANNELS 3 Zrotation Xrotation Yrotation
              JOINT LeftArm
              {
                OFFSET 16.3182 6.07031e-005 0
                CHANNELS 3 Zrotation Xrotation Yrotation
                JOINT LeftForeArm
                {
                  OFFSET 27.0901 0 0
                  CHANNELS 3 Zrotation Xrotation Yrotation
                  JOINT LeftHand
                  {
                    OFFSET 24.5451 1.51738e-005 0
                    CHANNELS 3 Zrotation Xrotation Yrotation
                    End Site
                    {
                      OFFSET 0 0 0
                    }
                  }
                }
              }
            }
            JOINT Neck
            {
              OFFSET 5.0226 -0.0266342 0
              CHANNELS 3 Zrotation Xrotation Yrotation
              JOINT Head
              {
                OFFSET 6.69364 2.86102e-005 0
                CHANNELS 3 Zrotation Xrotation Yrotation
                End Site
                {
                  OFFSET 0 0 0
                }
              }
            }
          }
        }
      }
    }
  }
}
MOTION
Frames:	10
Frame Time:	0.0416667
24.9174 100.031 -343.697 91.9512 -87.9721 91.2761 -170.554 -4.82293 94.8259 -11.3066 13.6449 -0.95834 70.9074 6.50002 -2.41452 34.5555 -0.232228 7.27385 174.468 -7.33782 92.8847 -11.3259 -1.83896 -0.318432 74.2889 -9.75034 -1.06796 22.6373 1.10975 5.51729 -0.225332 7.90925 -90.2965 11.0538 -0.586 -0.533529 -0.617141 -0.608909 -0.507226 -23.152 -0.398562 -0.68497 -3.13934 -0.398566 -0.684976 92.1587 -27.3316 -103.346 48.8532 -9.78868 25.5363 -36.6503 -0.28578 -74.1273 -6.92566 -0.271711 -0.659302 -88.4457 -47.1899 80.5091 -21.2334 30.5872 -9.30363 -4.36911 -13.0675 -49.8987 21.5874 11.4452 46.5353 17.4978 -1.03066 -4.80617 -7.70163 0.278042 3.23396 
25.0188 99.6906 -343.447 75.7346 -85.6057 73.4904 -172.754 -3.11136 92.2989 -12.9917 13.333 0.290657 71.4848 7.56193 -1.78561 35.5288 0.201081 7.35291 172.908 -4.81476 91.1661 -14.3497 -1.21064 0.414911 75.9756 -10.1575 -1.42559 23.1233 0.558102 6.71542 -0.510243 7.8224 -90.0901 11.229 -1.05736 -0.0750123 -0.441492 -1.05964 -0.0284027 -22.9797 -0.985937 -0.389352 -2.96707 -0.985934 -0.389362 92.047 -27.7925 -103.419 49.5546 -9.11941 29.2824 -37.31 1.59454 -76.7584 -7.01257 -0.250597 -1.12206 -87.1489 -45.0044 82.1197 -23.5914 30.7768 -4.156 12.8503 -6.55959 -58.2082 27.1427 7.58016 19.2944 18.249 -1.35169 -6.85949 -7.93479 0.563438 4.2114 
24.7806 99.1367 -342.679 74.4446 -84.9071 71.6972 -173.687 -1.45379 91.5061 -15.9994 12.4848 0.788965 73.3059 10.0115 1.18947 35.5976 0.765536 5.80851 172.445 -3.61991 90.8226 -17.4369 -0.543049 0.652212 78.1079 -10.7201 -1.0866 23.4907 0.769267 5.50953 -0.542244 7.85597 -90.1497 11.1611 -1.14872 -0.185613 -0.50935 -1.15578 -0.134879 -23.0479 -1.03983 -0.522313 -3.03521 -1.03982 -0.522306 92.5352 -26.7279 -102.763 50.3562 -8.84138 32.2773 -38.6705 2.38339 -78.2174 -8.28261 -0.376689 0.133424 -85.7218 -45.7302 84.5155 -23.7125 37.2341 -0.286522 31.4863 -4.12338 -62.4037 -6.42801 -0.732229 -2.70378 19.3662 -0.996565 -4.83977 -8.01807 0.413321 2.76541 
24.3637 98.6327 -341.578 73.9147 -83.6114 71.2816 -173.779 1.95227 91.9285 -23.4101 12.1654 0.811253 73.9131 10.2002 1.76304 35.7139 0.438664 6.90927 172.66 -3.91709 91.4131 -17.7672 1.71566 0.829857 79.4665 -10.9703 0.265042 23.4721 0.472279 6.54452 -0.547693 7.86355 -90.2749 11.1451 -1.21778 -0.428583 -0.525355 -1.23547 -0.374574 -23.0635 -1.03267 -0.774795 -3.05088 -1.03268 -0.7748 92.4497 -26.1924 -103.132 50.8174 -7.34297 34.8135 -42.3547 1.80221 -79.1482 -9.17262 -0.488445 1.073 -85.9383 -46.0996 84.2307 -25.7177 37.5369 4.75095 30.1747 -8.6587 -70.0838 -7.95111 -0.14029 -3.48709 19.6826 -0.901625 -3.15729 -7.65776 0.0366022 1.86727 
24.0588 98.3979 -340.625 77.6235 -79.7177 74.5561 -175.542 8.85894 90.6573 -34.6576 9.40347 1.94609 73.6637 8.985 1.32074 33.9012 0.52863 4.31204 172.291 -4.81215 91.8725 -16.5174 4.57309 1.58419 79.6368 -11.4869 -1.14793 23.337 0.453884 6.78973 -0.81185 7.89439 -90.3268 11.082 -1.76754 -0.479451 -0.587758 -1.78693 -0.401188 -23.13 -1.54172 -0.988607 -3.11732 -1.54171 -0.988602 92.304 -25.946 -103.529 51.4217 -6.76675 35.6498 -45.2194 1.69937 -79.6478 -8.26851 -0.350697 -0.258699 -85.6838 -45.1788 84.4888 -27.7199 37.0469 8.15347 30.1399 -11.4136 -75.1948 -7.3972 -0.0941638 -4.28658 20.9752 -1.66068 -3.47267 -7.76046 -0.588684 2.65945 
23.8292 97.8745 -339.425 78.8897 -76.1652 75.6218 -176.959 14.5783 89.5514 -43.964 11.2017 2.52596 73.4104 9.28339 5.11873 32.0294 0.618889 1.86309 172.311 -5.41263 92.6212 -16.266 9.0706 2.10432 81.1089 -11.3602 0.0953288 23.3883 0.987124 4.90894 -0.933098 7.95651 -90.4136 10.9559 -2.04907 -0.628067 -0.713494 -2.07472 -0.537247 -23.2577 -1.76556 -1.21499 -3.24502 -1.76557 -1.21502 91.4534 -26.7116 -105.048 50.2032 -3.69083 35.9658 -45.4631 1.69571 -80.6927 -10.0065 -0.464477 0.235237 -85.7987 -43.7752 84.0787 -29.7667 36.5444 10.6304 30.5991 -13.1689 -78.978 -7.20739 -0.0835857 -4.51501 22.534 -2.78357 -4.2271 -7.15988 -1.39459 3.88328 
23.579 97.3838 -337.924 76.886 -73.8786 73.4324 -177.423 20.2453 87.9983 -51.3222 8.70454 2.40639 74.3334 9.48016 5.61 29.7174 0.242914 0.338853 172.753 -5.76577 93.2984 -15.2199 10.9649 2.12862 81.1675 -10.8984 0.230312 24.4943 0.570688 4.78888 -0.863696 7.91003 -90.4786 11.0477 -1.94108 -0.76552 -0.621966 -1.97291 -0.67932 -23.164 -1.62128 -1.31359 -3.15136 -1.62129 -1.3136 91.547 -27.0744 -104.714 49.3068 -2.21441 35.0943 -47.3097 1.92063 -81.9901 -10.5125 -0.537351 0.788592 -85.8532 -43.394 83.9276 -30.662 36.6548 13.6807 31.7564 -14.9641 -82.1786 -6.14592 -0.120665 -3.50711 23.7141 -3.92776 -4.35394 -7.4086 -2.43088 4.43165 
23.2987 96.7908 -336.271 73.3228 -72.9351 69.9489 -176.643 25.8793 86.4649 -56.9367 5.88868 1.65157 75.2887 9.29872 4.54801 28.8829 -0.0204472 0.153225 173.668 -6.59847 94.2948 -12.7276 10.7744 1.67138 80.6588 -11.2943 -1.74264 25.6155 -0.383649 6.7635 -0.657472 7.8896 -90.6396 11.0863 -1.60542 -1.11756 -0.584094 -1.65305 -1.04582 -23.1204 -1.19536 -1.54837 -3.10777 -1.19536 -1.54837 91.4639 -26.282 -105.19 47.731 0.468329 33.1778 -47.0676 2.67858 -83.9711 -9.93374 -0.457879 0.211425 -85.593 -44.7727 84.5687 -29.8418 36.9596 15.5813 34.0763 -16.3759 -84.3373 -5.12357 -0.127481 -2.83064 25.7119 -4.49742 -2.43645 -8.3098 -3.58434 3.45703 
23.1152 96.387 -334.496 66.5039 -73.2114 63.068 -174.994 31.0525 84.4303 -59.754 4.24636 0.364917 75.544 8.96037 3.0227 28.4586 0.0403331 -0.420311 174.072 -4.45677 95.0402 -14.624 3.62903 1.01152 77.576 -10.2501 -10.6468 32.177 -0.886448 -3.00344 -0.284031 7.8001 -90.6652 11.2674 -0.874897 -1.23783 -0.403821 -0.928525 -1.19813 -22.9351 -0.462478 -1.4435 -2.92246 -0.462487 -1.44352 90.9032 -27.053 -106.065 43.2837 5.37268 30.3854 -45.3113 3.57219 -87.6367 -12.6336 -0.783068 2.08084 -86.1313 -44.5004 83.6621 -31.7781 35.3947 19.6926 36.5932 -17.6687 -86.4998 -4.33861 -0.120088 -2.64662 26.418 -5.42761 -2.51984 -8.01533 -4.42899 3.8056 
22.5579 96.1681 -332.275 60.2478 -74.1043 57.2033 -172.805 34.9365 83.2147 -60.7414 6.2297 -0.967258 75.6109 9.21572 3.46715 28.5618 0.14893 -0.578091 174.234 -0.58043 97.1814 -22.1256 -0.465228 0.483925 66.3354 1.6807 -15.444 52.4277 -10.2924 -5.5437 0.124388 7.8229 -90.7556 11.226 -0.10404 -1.4955 -0.44578 -0.169751 -1.48948 -22.9743 0.350181 -1.45765 -2.96164 0.350181 -1.45765 90.6663 -27.2978 -106.462 37.8846 15.6813 32.6064 -41.9816 7.282 -99.3903 -9.72739 -0.648938 2.89276 -85.5839 -44.5482 84.5494 -32.0937 33.8662 22.3816 34.8955 -18.6499 -88.6924 -1.92937 -0.0856616 -3.49653 27.9148 -5.8822 -1.94048 -8.19142 -5.05236 3.90218 
